<svg version="1.1" xmlns="http://www.w3.org/2000/svg" xmlns:xlink="http://www.w3.org/1999/xlink" x="0px" y="0px"
	 width="1249.05px" height="1162.51px" viewBox="0 0 1249.05 1162.51"
	 style="overflow:visible;enable-background:new 0 0 1249.05 1162.51;" xml:space="preserve">
<style type="text/css">
	.st0{fill:#D9534F;}
	.st1{fill:#EAC7A4;}
	.st2{opacity:0.09;fill:#FFFFFF;}
	.st3{opacity:0.05;}
	.st4{fill:#D3B79B;}
	.st5{fill:#FCD9B1;}
	.st6{fill:#5E4534;}
	.st7{opacity:0.09;fill:#5E4534;}
	.st8{fill:none;}
	.st9{opacity:0.09;fill:#E8C9AA;}
	.st10{opacity:0.04;fill:#FFFFFF;}
	.st11{opacity:0.07;}
	.st12{fill:#FFFFFF;}
	.st13{opacity:0.09;}
	.st14{fill:#4E685B;}
	.st15{fill:#6BBDDD;}
	.st16{fill:#96CEB4;}
	.st17{opacity:0.1;}
	.st18{fill:#88BAA1;}
	.st19{fill:#335A60;}
	.st20{fill:#2B4C54;}
	.st21{opacity:0.4;}
	.st22{fill:#1D1D1B;}
</style>
<defs>
</defs>
<g>
	<path class="st0" d="M1245.21,966.6c-3.63,9.27-6.14,22.34-13.55,34.19c-3.52,5.63-7.74,11.34-12.63,17.15
		c1.73-2.18,3.42-4.4,5.05-6.66c-10.29-36.51-32.7-72.51-81.45-48.1c-87.24,43.69-336.12-29.28-444.55,11.23
		c-108.43,40.5-113.33,77.57-294.71,74.69c-131.4-2.09-261.4-85.8-389.86-175.68c10.44-29.45,28.22-57.15,52.84-79.81
		c40.27-37.06,196.38-34.81,177.39-163.26s-21.8-245.42,64.56-336.69c86.37-91.28,45.77-177.68,238.87-232.4
		s587.52-171.69,466.63,232.4c-120.89,404.08,80.71,453.79,169.99,518.22c18.59,13.42,34.33,45.03,44.79,83.24
		c8.63,12.73,14.49,26.68,16.89,41.04C1247.15,946.19,1247.14,956.43,1245.21,966.6z"/>
	<g>
		<path class="st0" d="M1242.8,965.93c-3.04,8.06-5.07,16.46-8.51,24.38c-4.15,9.53-10.42,17.91-17.03,25.86
			c1.18,1.18,2.36,2.36,3.54,3.54c3.35-4.27,6.48-6.58,4.84-12.01c-1.46-4.85-3.13-9.64-5.08-14.32c-3.6-8.65-8.1-16.99-14.24-24.12
			c-12.48-14.5-30.4-19.44-48.78-14.54c-9.19,2.45-17.29,7.37-26.2,10.54c-6.68,2.37-13.58,4.1-20.54,5.44
			c-16.7,3.21-33.81,4.18-50.79,4.43c-84.8,1.21-168.94-14.22-253.67-15.83c-35.1-0.66-72.27-0.01-105.81,11.58
			c-30.54,10.56-59.3,25.49-88.32,39.53c-26.87,13-54.41,23.19-83.85,28.62c-21.27,3.92-42.88,5.84-64.47,6.84
			c-28.15,1.31-56.79,1.97-84.89-0.57c-57.49-5.21-112.8-25.11-164.37-50.29c-56.01-27.35-108.65-61.15-160.08-96.22
			c-13.32-9.08-26.57-18.28-39.78-27.52c0.38,0.94,0.77,1.88,1.15,2.82c5.89-16.34,13.82-31.85,23.73-46.11
			c8.68-12.5,19.02-25.34,31.05-34.8c11.44-8.99,26.06-13.96,39.6-18.79c33.96-12.12,70.11-22.17,99.01-44.68
			c14.34-11.17,25.93-25.48,32.37-42.59c8.32-22.1,6.23-44.75,3-67.6c-9.03-63.85-15.04-130.21-1.8-193.92
			c6.18-29.73,16.79-58.46,32.43-84.54c8.33-13.89,17.98-26.96,28.74-39.07c8.21-9.24,16.67-18.11,24.19-27.96
			c23.33-30.56,37.11-66.11,55.88-99.32c9.35-16.55,20.42-32.01,34.07-45.3c17.09-16.65,37.45-29.49,58.89-39.8
			c40.57-19.51,85.03-30.26,128.32-42.1c34.63-9.47,69.44-18.31,104.6-25.58c35.77-7.4,71.96-13.28,108.43-15.75
			c33.04-2.24,66.79-1.9,99.29,5.12c27.9,6.02,55.22,17.41,75.94,37.53c22.35,21.69,34.06,51.21,38.23,81.67
			c6.24,45.61-1.89,92.67-13.31,136.8c-8.62,33.3-19.11,66.01-26.67,99.61c-6.63,29.44-11.89,59.22-15.05,89.24
			c-4.86,46.03-4.85,93.19,5.22,138.56c7.35,33.1,20.42,64.94,39.88,92.78c16.37,23.41,36.79,43.51,59.41,60.86
			c20.19,15.49,41.96,28.66,63.74,41.77c9.53,5.73,19.07,11.47,28.33,17.63c6.03,4,11.98,8.05,16.97,13.34
			c10.69,11.33,18.08,25.79,24.03,40.05c3.4,8.13,6.32,16.46,8.91,24.88c1.15,3.74,1.86,7.83,3.69,11.27
			c2.04,3.82,4.6,7.36,6.58,11.24C1242.67,926.27,1246.25,946.24,1242.8,965.93c-0.55,3.15,4.27,4.5,4.82,1.33
			c3.14-17.95,1.09-36.05-5.85-52.9c-3.44-8.33-9.27-15.79-12.01-24.29c-2.89-8.99-5.58-17.97-9.08-26.76
			c-8.94-22.44-20.62-43.4-40.86-57.27c-19.29-13.22-39.84-24.51-59.61-36.97c-22.99-14.49-45.16-30.41-64.57-49.52
			c-22.24-21.91-40.25-47.71-52.75-76.34c-16.23-37.17-22.95-77.89-24.02-118.25c-1.56-58.51,8-116.97,21.82-173.65
			c13.85-56.82,34.02-111.82,37.63-170.69c2.16-35.18-1.12-72.2-17.72-103.88c-13.19-25.17-34.66-44.55-60.26-56.59
			C932.42,7.02,901.32,1.92,870.72,0.46c-35.45-1.7-71.02,1.49-106.08,6.65c-36.81,5.42-73.25,13.26-109.35,22.19
			c-33.02,8.17-65.78,17.34-98.5,26.63c-50.06,14.2-101.84,31.71-140.39,68.27c-27.55,26.12-42.9,60.01-59.7,93.34
			c-9.1,18.06-19.08,35.68-31.21,51.9c-7.49,10.01-16,18.99-24.32,28.29c-10.48,11.71-19.99,24.31-28.26,37.67
			c-32.42,52.34-43.02,113.86-42.54,174.65c0.26,33.48,3.57,66.86,8.01,100.02c3.35,25.01,7.75,49.63-0.92,74.11
			c-13.21,37.3-50.48,56.76-85.2,70.07c-16.92,6.48-34.24,11.84-51.19,18.22c-12.8,4.82-26.16,10.13-36.47,19.39
			c-24.28,21.78-42.47,50.34-53.48,80.91c-0.4,1.1,0.28,2.22,1.15,2.82c51.55,36.05,103.67,71.59,158.69,102.2
			c49.65,27.62,102.18,51.6,157.75,64.39c51.87,11.94,106.19,11.64,159.01,7.16c33.33-2.83,66.25-8.92,97.4-21.35
			c26.4-10.53,51.28-24.46,77.17-36.13c15.84-7.14,32.07-14.38,48.86-19.01c16.47-4.54,33.53-6.64,50.55-7.73
			c83.36-5.35,166.92,9.39,250,13.85c34.67,1.86,70.68,3.14,104.83-4.34c6.75-1.48,13.43-3.37,19.86-5.93
			c9.44-3.76,18.17-8.81,28.37-10.42c21.62-3.41,37.59,10.09,47.15,28.25c2.35,4.46,4.34,9.1,6.07,13.83
			c0.87,2.38,1.68,4.79,2.43,7.22c1.26,4.04-0.46,5.22-3.11,8.6c-1.95,2.48,1.45,6.04,3.54,3.54c6.72-8.08,13.2-16.58,17.53-26.21
			c3.82-8.49,6.01-17.54,9.29-26.23C1248.76,964.25,1243.93,962.95,1242.8,965.93z"/>
	</g>
</g>
<path id="cuello_1_" class="st1" d="M478.06,620.69l11.35,89.02l8.43,87.38c0,0,70.07,54.4,74.19,51.93
	c4.12-2.47,122-53.58,122-53.58l60.34-68.42l-10.88-33.8c0,0-14.84-125.48-12.36-139.81s-30.5-5.27-30.5-5.27L478.06,620.69z"/>
<path class="st2" d="M754.36,727.02l-60.33,68.42c0,0-1.55,0.66-4.28,1.85c9.64-32.63,18.95-73.47,15.07-100.08
	c-4.5-30.83,13.43-49.49,31.74-66.86c3.35,32.55,6.94,62.88,6.94,62.88L754.36,727.02z"/>
<path class="st1" d="M734.12,605.75c-22.29,34.86-68.83,76.86-165.64,91.46c-67.49,10.19-62.14,73.43-50.81,115.04
	c-3.73-2.82-7.16-5.43-10.07-7.66c-0.31-0.24-0.62-0.47-0.92-0.7c-2.21-1.69-4.09-3.14-5.54-4.25c-0.18-0.14-0.34-0.27-0.5-0.39
	c-1.79-1.39-2.79-2.16-2.79-2.16l-8.43-87.38l-11.36-89.02c22.5,29.03,55.26,53.18,100.81,47.81
	c104.93-12.36,115.16-51.11,136.59-81.61c6.58-9.36,11.75-21.64,15.75-34.14c-0.02,0.22-0.05,0.44-0.09,0.66
	C730.17,558.92,731.78,580.84,734.12,605.75z"/>
<path class="st3" d="M734.12,605.75c-22.29,34.86-68.83,76.86-165.64,91.46c-67.49,10.19-62.14,73.43-50.81,115.04
	c-11.29-8.53-19.83-15.16-19.83-15.16l-8.43-87.38l-11.36-89.02l222.56-72.54c0,0,11.29-3.1,20.16-2.8c3.27,0.1,6.23,0.68,8.15,2.04
	c1.77,1.26,2.68,3.18,2.19,6.03C730.17,558.92,731.78,580.84,734.12,605.75z"/>
<path class="st4" d="M442.62,524.28c0,0,1.65,23.04-18.96,15.62c-20.61-7.42-20.29-44.86-20.29-44.86s-30.34-69.36-6.87-78.78
	c23.47-9.43,41.18,30.2,41.18,30.2L442.62,524.28z"/>
<path class="st5" d="M589.47,211.83h94.67l56.05,57.7c0,0,16.81,100.57,14.18,103.04c-2.64,2.47-10.99,122.47-10.99,122.47
	s-6.48,61.35-27.92,91.85c-21.43,30.5-31.67,69.24-136.6,81.61c-104.93,12.36-142.02-131.89-142.02-131.89
	s-19.78-111.28-23.9-155.79c-4.12-44.51-29.67-85.73,21.43-140.13S589.47,211.83,589.47,211.83z"/>
<path class="st5" d="M498.61,642.68c-44.44-38.72-61.77-106.07-61.77-106.07s-19.78-111.28-23.9-155.79
	c-4.12-44.51-29.67-85.73,21.43-140.13c33.53-35.7,89.84-36.97,124.58-33.62C538.48,218.2,388.44,312.79,498.61,642.68z"/>
<path class="st6" d="M403.36,401.25c0,0,3.81,42.21-5.26-34.45c-9.07-76.66,21.43-154.15,60.17-189.59s97.27-50.28,159.09-44.51
	s113.75,57.7,137,96.44s31.16,145.08,27.04,154.15c0,0-2.47,8.24-18.96,17.96c-16.49,9.72-14.01,38.56-14.01,38.56
	s-3.3-67.24-15.66-87.84s-14.84-70.07-27.96-90.67s-89.91-39.57-115.34-27.77s-61.13,5.52-89.15,0.57
	c-28.03-4.95-58.53,23.08-73.36,55.23s-8.24,100.93-8.24,100.93l4.95,65.58C423.66,455.83,411.92,407.67,403.36,401.25z"/>
<path class="st6" d="M748.4,439.1v0.18c-0.01-0.1-0.01-0.23-0.02-0.37c0-0.01,0-0.01,0-0.01c0-0.08-0.01-0.17-0.01-0.27
	C748.38,438.8,748.39,438.96,748.4,439.1z"/>
<path class="st6" d="M748.42,439.61c0,0.01,0,0.01,0,0.02c0-0.03-0.01-0.07-0.01-0.1c0.01-0.01,0.01-0.02,0-0.02c0,0,0,0,0-0.01
	C748.42,439.55,748.42,439.58,748.42,439.61z"/>
<path class="st6" d="M748.42,439.64c0.01,0.11,0.01,0.17,0.01,0.17s0-0.02-0.01-0.08V439.64z"/>
<path class="st6" d="M695.39,252.48c-24.97-16.67-84.19-29.05-105.92-18.97c-25.42,11.8-61.12,5.52-89.15,0.57
	c-5.69-1.01-11.48-0.65-17.22,0.82c-10.58-6.67-29.55-12.39-32.74-16.8c-4.85-6.69,6.65-14.84,6.65-14.84
	c25.44-31.8,104.15-60.22,200.58-38.42C744.23,184.45,704.38,241.19,695.39,252.48z"/>
<path class="st6" d="M748.43,439.81c0,0-0.03-0.42-0.07-1.18C748.41,439.4,748.43,439.81,748.43,439.81z"/>
<path class="st7" d="M748.36,439.51c0.05,0.77,0.07,1.18,0.07,1.18S748.4,440.27,748.36,439.51z"/>
<path class="st5" d="M782.45,481.64c-17.09,52.32-47.2,23.5-47.2,23.5l13.33-89.01c0,0,3.62-9.03,10.41-18.13
	c2.11-2.84,4.53-5.67,7.24-8.24c4.59-4.37,10.03-7.99,16.23-9.54C804.1,374.81,799.54,429.31,782.45,481.64z"/>
<g>
	<path class="st8" d="M583.24,499.07c0,0,15.09-6.74,18.63,0S583.24,499.07,583.24,499.07z"/>
	<path class="st8" d="M554.02,505.56c0,0-8.94-11.04-17.02-3.5C530.58,508.06,554.02,505.56,554.02,505.56z"/>
</g>
<path d="M546.43,443.62c-2.43,10.99-7.14,25.52-15.38,33.52c-9.44,9.15-24.4,12.03-36.97,13.73c-14.83,2.01-30.68,0.49-43.56-7.74
	c-2.18-1.39-4.23-3.03-6.01-4.92c-9.19-9.8-13.74-29.17-13.63-42.26c0.16-18.52,12.72-29.54,30.46-32.24
	c16.11-2.45,32.64-3.4,48.85-1.34c9.25,1.18,23.74,3.07,30.82,9.76c0.04,0.04,0.09,0.08,0.13,0.12
	C549.45,420.25,548.72,433.29,546.43,443.62z M694.48,468.01c-1.61,2.03-3.52,3.83-5.58,5.4c-13.91,10.59-32.63,12.48-49.59,11.09
	c-10.54-0.86-21.06-3.82-29.82-9.74c-9.57-6.48-15.19-20.06-18.82-30.74c-3.59-10.54-6.07-24.44,2.03-33.63
	c0.04-0.04,0.08-0.09,0.12-0.13c6.51-7.25,20.78-10.34,29.91-12.28c15.98-3.4,32.53-3.83,48.79-2.73
	c17.9,1.21,31.33,11.14,33.03,29.56C705.75,437.83,702.82,457.49,694.48,468.01z M725.58,396.59c-12.63,2.34-19.73-2.35-19.73-2.35
	C651.43,381.63,584,402.92,584,402.92s-6.71,4.74-17.36,5.13c-10.65,0.4-29.18-4.73-35.49-7.1c-6.31-2.37-58.38-5.13-85.59,0.79
	c-27.2,5.92-34.31,6.33-34.31,6.33l-7.88-1.99v7.49l9.07,3.95c0,0,7.89-5.52,11.83,16.57c3.95,22.08,7.1,51.28,33.92,57.59
	c19.92,4.68,43.3,5.21,62.38-3.06c16.98-7.36,27.67-23.89,30.29-41.91c1.42-9.74-0.64-26.43,11.22-30.03
	c11.22-3.39,15.14,4.68,17.97,13.42c2.84,8.72,4.93,17.84,9.07,26.08c6.7,13.41,19.33,28,40.93,31.55
	c21.6,3.55,44.65-0.79,62.4-9.47s18.54-46.54,18.92-59.16c0.4-12.63,9.08-13.42,9.08-13.42l38.52-7.68
	c2.11-2.84,4.53-5.67,7.24-8.24C759.09,390.9,736.16,394.62,725.58,396.59z"/>
<path class="st9" d="M748.36,439.51c0.05,0.77,0.07,1.18,0.07,1.18S748.4,440.27,748.36,439.51z"/>
<path class="st3" d="M734.12,605.75c-22.29,34.86-68.83,76.86-165.64,91.46c-67.49,10.19-62.14,73.43-50.81,115.04
	c-3.73-2.82-7.16-5.43-10.07-7.66c-0.31-0.24-0.62-0.47-0.92-0.7c-2.21-1.69-4.09-3.14-5.54-4.25c-0.18-0.14-0.34-0.27-0.5-0.39
	c-1.79-1.39-2.79-2.16-2.79-2.16l-8.43-87.38l-11.36-89.02c22.5,29.03,55.26,53.18,100.81,47.81
	c104.93-12.36,115.16-51.11,136.59-81.61c6.58-9.36,11.75-21.64,15.75-34.14c-0.02,0.22-0.05,0.44-0.09,0.66
	C730.17,558.92,731.78,580.84,734.12,605.75z"/>
<path class="st2" d="M754.36,727.02l-60.33,68.42c0,0-1.55,0.66-4.28,1.85c9.64-32.63,18.95-73.47,15.07-100.08
	c-4.5-30.83,13.43-49.49,31.74-66.86c3.35,32.55,6.94,62.88,6.94,62.88L754.36,727.02z"/>
<path class="st10" d="M695.39,252.48c-24.97-16.67-84.19-29.05-105.92-18.97c-25.42,11.8-61.12,5.52-89.15,0.57
	c-5.69-1.01-11.48-0.65-17.22,0.82c-10.58-6.67-29.55-12.39-32.74-16.8c-4.85-6.69,6.65-14.84,6.65-14.84
	c25.44-31.8,104.15-60.22,200.58-38.42C744.23,184.45,704.38,241.19,695.39,252.48z"/>
<path class="st2" d="M781.41,384.17c0,0-2.47,8.24-18.96,17.96c-13.88,8.17-14.32,29.89-14.12,36.58c-0.07-1.14-0.17-2.76-0.31-4.75
	c-2.48,30.87-4.65,61.96-4.65,61.96s-6.48,61.35-27.91,91.85c-10.02,14.25-17.59,30.29-33.51,44.62
	c19.84-57.07,11.51-226.82-6.75-293.2c-2.62-9.55-3.43-19.36-2.79-29.26c1.5-23.21,15.18-43.71,35.5-54.45
	c1.77-0.96,3.61-1.82,5.48-2.61c14.76-6.19,30.05-12.98,42.72-19.77c2.04,3.81,3.95,8.15,5.74,12.89
	C779.29,292.13,785.05,376.15,781.41,384.17z"/>
<g class="st11">
	<g>
		<path class="st12" d="M652.31,170.27c6.4,3.97,12.35,8.61,17.99,13.59c2.85,2.47,5.54,5.11,8.2,7.8c2.63,2.71,5.13,5.56,7.55,8.49
			c4.7,5.94,9.04,12.38,11.55,19.77c1.23,3.68,1.91,7.66,1.4,11.59c-0.28,1.95-0.86,3.86-1.79,5.57c-0.92,1.71-2.16,3.21-3.59,4.43
			c1.1-1.52,2.01-3.15,2.58-4.87c0.57-1.72,0.86-3.5,0.84-5.27c0.02-3.56-0.99-7.04-2.36-10.35c-1.44-3.29-3.2-6.48-5.23-9.51
			c-2-3.05-4.18-6-6.51-8.85c-2.28-2.89-4.71-5.67-7.19-8.41c-2.45-2.77-5.03-5.43-7.59-8.13
			C662.99,180.77,657.68,175.54,652.31,170.27z"/>
	</g>
	<g>
		<path class="st12" d="M622.8,170.27c6.46,2.12,12.59,5.17,18.4,8.75c5.79,3.61,11.29,7.81,16.06,12.85
			c2.36,2.53,4.56,5.26,6.43,8.23c1.83,2.99,3.38,6.2,4.31,9.61c0.95,3.39,1.37,6.97,0.97,10.46c-0.42,3.48-1.48,6.81-3.09,9.8
			c0.78-3.31,1.27-6.61,1.13-9.87l-0.18-2.43l-0.43-2.38c-0.38-1.56-0.75-3.13-1.37-4.61c-2.25-6.03-6.22-11.29-10.67-16.06
			c-4.5-4.75-9.58-9.03-14.9-13.02C634.1,177.62,628.54,173.88,622.8,170.27z"/>
	</g>
	<g>
		<path class="st12" d="M596.44,167.11c6.47,1.55,12.68,4.1,18.57,7.25c5.88,3.18,11.49,7.06,16.28,11.94
			c2.37,2.46,4.53,5.17,6.26,8.18c1.71,3.01,3.1,6.28,3.62,9.75c0.6,3.45,0.44,6.98-0.32,10.31c-0.82,3.33-2.32,6.39-4.12,9.17
			c1.01-3.17,1.95-6.29,2.18-9.49c0.26-3.18-0.01-6.32-0.79-9.32c-0.24-0.74-0.43-1.49-0.7-2.22l-0.86-2.16
			c-0.34-0.7-0.71-1.39-1.05-2.08c-0.34-0.7-0.81-1.33-1.21-2c-1.69-2.62-3.69-5.07-5.89-7.35c-4.45-4.53-9.59-8.47-15-12.06
			C607.98,173.47,602.3,170.2,596.44,167.11z"/>
	</g>
	<g>
		<path class="st12" d="M572.19,167.11c5.88,1.42,11.48,3.91,16.71,7.03c5.23,3.13,10.12,7.02,14.05,11.89
			c1.95,2.43,3.68,5.08,5,7.96c1.28,2.89,2.17,5.97,2.51,9.1c0.76,6.29-0.87,12.58-3.81,17.81c1.4-5.86,1.96-11.76,0.73-17.32
			c-0.63-2.76-1.57-5.43-2.84-7.95c-1.3-2.51-2.89-4.87-4.69-7.09c-3.58-4.46-8-8.29-12.68-11.82
			C582.45,173.24,577.44,170.07,572.19,167.11z"/>
	</g>
	<g>
		<path class="st12" d="M549.36,173.5c5.54,1.55,10.79,4,15.75,6.95c4.98,2.93,9.62,6.53,13.66,10.8c2.01,2.15,3.83,4.5,5.38,7.04
			c1.55,2.53,2.83,5.28,3.56,8.19c0.79,2.89,1.08,5.91,0.86,8.86c-0.32,2.95-1.11,5.79-2.35,8.37c0.4-2.85,0.62-5.64,0.39-8.38
			c-0.24-2.74-0.92-5.37-1.86-7.88c-0.47-1.26-1.09-2.46-1.68-3.66c-0.68-1.16-1.33-2.34-2.11-3.45c-1.52-2.23-3.23-4.36-5.1-6.35
			c-3.75-3.99-8-7.58-12.47-10.94C558.89,179.69,554.21,176.55,549.36,173.5z"/>
	</g>
	<g>
		<path class="st12" d="M524.05,176.6c5.96,1.63,11.66,4.16,17.06,7.24c2.71,1.53,5.32,3.25,7.82,5.14c2.5,1.89,4.89,3.96,7.06,6.28
			c2.17,2.32,4.15,4.85,5.76,7.66c1.6,2.8,2.78,5.91,3.26,9.15c0.53,3.23,0.29,6.54-0.56,9.62c-0.95,3.07-2.49,5.84-4.37,8.28
			c1.12-2.89,2.09-5.75,2.45-8.68c0.34-2.93,0.13-5.83-0.57-8.6c-0.74-2.76-1.9-5.39-3.46-7.83c-1.55-2.44-3.39-4.72-5.41-6.86
			c-4.03-4.3-8.76-8.01-13.64-11.54C534.5,182.98,529.35,179.75,524.05,176.6z"/>
	</g>
	<g>
		<path class="st12" d="M501.56,182.57c5.66,1.15,11.11,3.17,16.32,5.7c2.62,1.26,5.15,2.7,7.6,4.3c1.23,0.78,2.41,1.67,3.59,2.53
			c1.15,0.92,2.3,1.84,3.39,2.85c2.18,2.01,4.21,4.22,5.93,6.69c1.69,2.49,3.08,5.26,3.83,8.22c0.8,2.94,0.95,6.06,0.43,9.01
			c-0.59,2.94-1.75,5.68-3.32,8.09c0.76-2.79,1.34-5.54,1.36-8.28c0.03-2.74-0.53-5.39-1.45-7.88c-0.97-2.48-2.31-4.8-3.93-6.94
			c-1.65-2.13-3.53-4.11-5.55-5.96c-4.03-3.72-8.65-6.89-13.39-9.91C511.59,188.03,506.64,185.27,501.56,182.57z"/>
	</g>
	<g>
		<path class="st12" d="M479.77,194c5.29,0.54,10.45,1.94,15.44,3.81c4.97,1.93,9.81,4.37,14.14,7.72c2.16,1.67,4.19,3.55,5.97,5.69
			c1.75,2.16,3.22,4.61,4.16,7.27c0.95,2.65,1.31,5.51,1.06,8.26c-0.33,2.75-1.19,5.35-2.47,7.67c0.44-2.63,0.73-5.19,0.5-7.69
			c-0.21-2.5-0.95-4.86-2-7.04c-1.07-2.18-2.48-4.18-4.13-6c-1.67-1.81-3.54-3.46-5.53-4.99c-3.97-3.08-8.42-5.63-12.98-8.02
			C489.35,198.29,484.62,196.15,479.77,194z"/>
	</g>
	<g>
		<path class="st12" d="M464.94,206.27c3.9,0.26,7.69,1.08,11.42,2.1c3.72,1.06,7.37,2.4,10.89,4.09c3.51,1.7,6.94,3.73,9.91,6.51
			c1.45,1.41,2.81,3.06,3.58,5.1l0.21,0.79c0.08,0.26,0.13,0.52,0.14,0.8l0.06,0.81c0,0.27-0.07,0.54-0.11,0.81
			c-0.04,0.53-0.31,1.01-0.49,1.48c-0.24,0.45-0.58,0.84-0.87,1.21c0.63-1.9,0.27-3.68-0.71-5.04c-0.95-1.4-2.37-2.5-3.82-3.54
			c-2.98-2.03-6.29-3.7-9.64-5.33c-3.36-1.62-6.79-3.16-10.23-4.75C471.83,209.71,468.37,208.12,464.94,206.27z"/>
	</g>
</g>
<g class="st13">
	<path d="M748.36,438.63c0.03,0.76,0.07,1.18,0.07,1.18S748.41,439.4,748.36,438.63z"/>
	<path d="M408.58,409.01c0.37,0.74,0.72,1.53,1.08,2.35C409.3,410.55,408.93,409.76,408.58,409.01z"/>
	<path d="M521.46,237.59c-45.25,49.26-103.13,164.7-22.85,405.09c-44.44-38.72-61.77-106.07-61.77-106.07s-7.46-41.97-14.17-84.67
		c0.63,2.44,0.98,3.89,0.98,3.89l-4.95-65.58c0,0-6.59-68.78,8.24-100.93c14.84-32.15,45.34-60.17,73.36-55.23
		C507,235.27,514.14,236.53,521.46,237.59z"/>
</g>
<path class="st14" d="M490.83,724.27c-5.52-4.14-13.07-11.77-13.59-22.67c-0.82-17.31,6.59-24.87,6.59-24.87
	c0.43-0.24,0.87-0.45,1.31-0.62l4.28,33.59L490.83,724.27z"/>
<path class="st14" d="M751.58,657.4c-1.87,4.36-6.35,7.98-10.97,10.66c-1.11-9.89-2.42-21.84-3.71-34.28
	c5.37-0.14,10.4,0.26,11.53,2.15C751.03,640.25,756.08,646.89,751.58,657.4z"/>
<path class="st15" d="M1131.75,1015.53H150.94l29.96-76.05c0,0,13.6-58.11,40.8-76.66c27.2-18.55,56.88-43.28,92.73-51.93
	c35.86-8.66,75.42-33.38,75.42-33.38s69.96-45.63,79.5-37.04c9.53,8.6,34.25,6.12,34.25,6.12s44.51,8.66,51.93,35.86
	c0.56,2.05,1.1,4.13,1.61,6.24c3.09,12.59,5.44,25.87,7.02,36.15c1.66,10.81,2.5,18.31,2.5,18.31s9.3-73.07,63.38-87.9
	c54.08-14.84,130.74-76.66,130.74-76.66l27.2,24.76c0,0,9.89,9.86,35.86,17.28c25.97,7.42,68.01,27.2,81.61,32.15
	c13.6,4.95,70.48,25.97,103.86,48.22c33.38,22.26,61.82,16.07,74.19,55.64C1091.4,881.89,1115.41,961.33,1131.75,1015.53z"/>
<path class="st16" d="M1131.75,1015.53H150.94l29.96-76.05c0,0,13.6-58.11,40.8-76.66c27.2-18.55,56.88-43.28,92.73-51.93
	c35.86-8.66,75.42-33.38,75.42-33.38s69.96-45.63,79.5-37.04c9.53,8.6,34.25,6.12,34.25,6.12s44.51,8.66,51.93,35.86
	c0.56,2.05,1.1,4.13,1.61,6.24c3.09,12.59,5.44,25.87,7.02,36.15c1.66,10.81,2.5,18.31,2.5,18.31s9.3-73.07,63.38-87.9
	c54.08-14.84,130.74-76.66,130.74-76.66l27.2,24.76c0,0,9.89,9.86,35.86,17.28c25.97,7.42,68.01,27.2,81.61,32.15
	c13.6,4.95,70.48,25.97,103.86,48.22c33.38,22.26,61.82,16.07,74.19,55.64C1091.4,881.89,1115.41,961.33,1131.75,1015.53z"/>
<path class="st16" d="M1131.75,1015.53H150.94l29.96-76.05c0,0,13.6-58.12,40.8-76.66c27.21-18.55,56.88-43.28,92.74-51.93
	c35.86-8.66,75.42-33.39,75.42-33.39s69.97-45.63,79.5-37.04c9.53,8.6,34.26,6.13,34.26,6.13s44.51,8.65,51.93,35.86
	c0.56,2.05,1.1,4.13,1.61,6.24c3.09,12.59,5.44,25.86,7.02,36.14v0.01c1.66,10.81,2.5,18.31,2.5,18.31s6.95-54.65,43.81-79.02
	c4.26-2.82,8.92-5.23,14.02-7.11c0.02-0.01,0.05-0.02,0.08-0.03c1.37-0.5,2.77-0.97,4.21-1.39c0-0.01,0.01,0,0.01,0
	c0.41-0.13,0.83-0.24,1.25-0.36c54.08-14.83,130.74-76.66,130.74-76.66l27.2,24.77c0,0,9.89,9.86,35.86,17.27
	c25.97,7.42,68.01,27.21,81.61,32.15c13.6,4.95,70.47,25.97,103.86,48.22c33.38,22.26,61.82,16.08,74.19,55.64
	C1091.4,881.89,1115.41,961.33,1131.75,1015.53z"/>
<path class="st16" d="M1131.75,1015.53h-43.47c-12.61-54.51-34.54-122.35-48.04-154.14c-23.08-54.41-214.32-110.46-243.22-130.24
	c-7.77-5.33-8.19-13.86-4.4-24.21c0.32,0.23,0.67,0.46,1.03,0.68c0.18,0.12,0.37,0.24,0.56,0.36c0.57,0.36,1.19,0.74,1.85,1.14
	c0.44,0.26,0.9,0.53,1.38,0.8c0.71,0.41,1.47,0.83,2.28,1.26c0.54,0.28,1.1,0.57,1.68,0.87c0.29,0.14,0.59,0.29,0.89,0.44
	c0.59,0.29,1.22,0.59,1.86,0.89c0.48,0.22,0.97,0.45,1.47,0.68c0.27,0.12,0.55,0.24,0.83,0.37c0.98,0.43,2,0.86,3.06,1.29
	c1.06,0.43,2.18,0.86,3.33,1.3c0.02,0,0.05,0.01,0.07,0.02c0.41,0.15,0.83,0.3,1.25,0.46c1.26,0.45,2.58,0.91,3.94,1.36
	c0.46,0.15,0.92,0.29,1.39,0.44c1.4,0.45,2.86,0.89,4.37,1.32c25.97,7.42,68.01,27.21,81.61,32.15
	c13.6,4.95,70.47,25.97,103.86,48.22c33.38,22.26,61.82,16.08,74.19,55.64c0.87,2.78,1.93,6.22,3.16,10.22
	c0.41,1.33,0.84,2.72,1.28,4.17c0.15,0.48,0.3,0.97,0.45,1.47c0.3,0.99,0.61,2,0.94,3.04c2.7,8.84,5.92,19.4,9.43,30.95
	c0.4,1.36,0.82,2.73,1.25,4.12c0.42,1.39,0.85,2.79,1.27,4.2c0.64,2.11,1.29,4.25,1.95,6.42c0.22,0.72,0.44,1.44,0.66,2.17
	c0.4,1.35,0.82,2.71,1.23,4.08c0.26,0.83,0.51,1.67,0.76,2.51c0.38,1.23,0.75,2.47,1.13,3.72c0.29,0.95,0.58,1.9,0.86,2.85
	c0.24,0.79,0.48,1.57,0.72,2.36c0.34,1.13,0.68,2.26,1.02,3.39c0.29,0.97,0.58,1.93,0.88,2.9c0.05,0.17,0.1,0.33,0.15,0.5
	c0.69,2.27,1.38,4.55,2.07,6.83c2.19,7.26,4.4,14.55,6.57,21.75c0.33,1.11,0.67,2.2,1,3.3c0.68,2.26,1.36,4.5,2.03,6.73
	c0.43,1.43,0.86,2.85,1.29,4.27c0.85,2.82,1.69,5.61,2.52,8.36c0.23,0.75,0.45,1.49,0.67,2.23c0.91,3.01,1.81,5.97,2.68,8.88
	c0.42,1.38,0.83,2.74,1.24,4.09C1131.07,1013.28,1131.41,1014.41,1131.75,1015.53z"/>
<path class="st16" d="M460.41,740.17c0.55,14.08,2.1,27.08,5.26,40.04c-24.1,29.83-52.74,61.17-78.07,77.88
	c-57.51,37.92-117.26,29.67-156.83,72.43c-22.61,24.44-20.99,56.51-20.38,85.01h-59.45l29.96-76.05c0,0,13.6-58.12,40.8-76.66
	c27.21-18.55,56.88-43.28,92.74-51.93c35.86-8.66,75.42-33.39,75.42-33.39s0,0,0.01-0.01s0.04-0.02,0.08-0.04
	c0.14-0.1,0.46-0.31,0.93-0.61c0.14-0.09,0.28-0.18,0.44-0.28c1.61-1.03,4.46-2.85,8.16-5.15c0.22-0.14,0.44-0.28,0.67-0.41
	c1-0.62,2.06-1.28,3.17-1.96c0.41-0.25,0.83-0.51,1.26-0.77c3.35-2.04,7.1-4.29,11.07-6.6c0.31-0.18,0.63-0.37,0.95-0.56
	c0.25-0.14,0.5-0.29,0.76-0.44c0.51-0.29,1.03-0.59,1.55-0.89c0.32-0.18,0.64-0.37,0.96-0.55c2.38-1.36,4.81-2.73,7.26-4.07
	c0.48-0.26,0.95-0.53,1.43-0.79c0.5-0.27,1.01-0.54,1.51-0.81c0.49-0.27,0.98-0.53,1.47-0.79c2.46-1.31,4.9-2.58,7.3-3.78
	c1.92-0.96,3.81-1.88,5.66-2.74c0.93-0.43,1.84-0.84,2.74-1.24c0.45-0.2,0.89-0.4,1.33-0.59c0.89-0.38,1.76-0.75,2.61-1.1
	C454.58,741.93,457.71,740.84,460.41,740.17z"/>
<path class="st16" d="M527.68,754.73c3.86,37.64-38.78,99.4-35.19,80.28c3.71-19.79,0-35.86,0-61.83
	c0-17.51,15.76-21.52,26.01-22.27C521.39,751.96,524.52,753.23,527.68,754.73z"/>
<path class="st16" d="M673.01,839.95c0,0-43.75,4.67-43.12-84.66c0.06-0.02,0.11-0.03,0.17-0.05c2.59-0.71,5.24-1.53,7.92-2.45
	c8.24,7.84,20.28,25.83,22.67,64.91C665.87,833.77,673.01,839.95,673.01,839.95z"/>
<path class="st16" d="M957.83,1015.53h-13.81c-7.88-16.25-20.56-43.67-42.26-75.01C881.02,910.56,953.7,981.14,957.83,1015.53z"/>
<path class="st16" d="M1131.75,1015.53h-70.91c1.23-39.09,0.29-76.21-6.13-92.61c4.45,8.58,13.4,26.71,22.83,50.69
	c-12.15-43.79-27.12-88.25-37.3-112.22c-23.08-54.41-214.32-110.46-243.22-130.24c-7.77-5.33-8.19-13.86-4.4-24.21
	c0.32,0.23,0.67,0.46,1.03,0.68c0.18,0.12,0.37,0.24,0.56,0.36c0.57,0.36,1.19,0.74,1.85,1.14c0.44,0.26,0.9,0.53,1.38,0.8
	c0.71,0.41,1.47,0.83,2.28,1.26c0.54,0.28,1.1,0.57,1.68,0.87c0.29,0.14,0.59,0.29,0.89,0.44c0.59,0.29,1.22,0.59,1.86,0.89
	c0.48,0.22,0.97,0.45,1.47,0.68c0.27,0.12,0.55,0.24,0.83,0.37c0.98,0.43,2,0.86,3.06,1.29c1.06,0.43,2.18,0.86,3.33,1.3
	c0.02,0,0.05,0.01,0.07,0.02c0.41,0.15,0.83,0.3,1.25,0.46c1.26,0.45,2.58,0.91,3.94,1.36c0.46,0.15,0.92,0.29,1.39,0.44
	c1.4,0.45,2.86,0.89,4.37,1.32c25.97,7.42,68.01,27.21,81.61,32.15c13.6,4.95,70.47,25.97,103.86,48.22
	c33.38,22.26,61.82,16.08,74.19,55.64c0.87,2.78,1.93,6.22,3.16,10.22c0.41,1.33,0.84,2.72,1.28,4.17c0.15,0.48,0.3,0.97,0.45,1.47
	c0.3,0.99,0.61,2,0.94,3.04c2.7,8.84,5.92,19.4,9.43,30.95c0.4,1.36,0.82,2.73,1.25,4.12c0.42,1.39,0.85,2.79,1.27,4.2
	c0.64,2.11,1.29,4.25,1.95,6.42c0.22,0.72,0.44,1.44,0.66,2.17c0.4,1.35,0.82,2.71,1.23,4.08c0.26,0.83,0.51,1.67,0.76,2.51
	c0.38,1.23,0.75,2.47,1.13,3.72c0.29,0.95,0.58,1.9,0.86,2.85c0.24,0.79,0.48,1.57,0.72,2.36c0.34,1.13,0.68,2.26,1.02,3.39
	c0.29,0.97,0.58,1.93,0.88,2.9c0.05,0.17,0.1,0.33,0.15,0.5c0.69,2.27,1.38,4.55,2.07,6.83c2.19,7.26,4.4,14.55,6.57,21.75
	c0.33,1.11,0.67,2.2,1,3.3c0.68,2.26,1.36,4.5,2.03,6.73c0.43,1.43,0.86,2.85,1.29,4.27c0.85,2.82,1.69,5.61,2.52,8.36
	c0.23,0.75,0.45,1.49,0.67,2.23c0.91,3.01,1.81,5.97,2.68,8.88c0.42,1.38,0.83,2.74,1.24,4.09
	C1131.07,1013.28,1131.41,1014.41,1131.75,1015.53z"/>
<path class="st16" d="M1007.87,1015.53h-15.54c-5.97-33.94-5.12-106.94,18.24-149.2C1014.1,859.94,1016.55,969.83,1007.87,1015.53z"
	/>
<path class="st15" d="M1051.79,917.46c1.08,1.41,2.05,3.25,2.92,5.46C1052.96,919.55,1051.9,917.67,1051.79,917.46z"/>
<path class="st17" d="M1092.15,1015.53h-31.31c1.23-39.09,0.29-76.21-6.13-92.61c4.45,8.58,13.4,26.71,22.83,50.69
	C1082.47,986.15,1087.54,1000.31,1092.15,1015.53z"/>
<path class="st16" d="M575.48,840.54c-0.3,1.05-0.53,1.92-0.62,2.22c-5.51,19.99-5.79,43.77-15.43,62.35
	c-6.39,12.32-9.26,65.46-10.56,110.42H150.94l29.96-76.05c0,0,13.6-58.11,40.8-76.66c27.2-18.55,56.88-43.28,92.73-51.93
	c35.86-8.66,75.42-33.38,75.42-33.38s69.96-45.63,79.5-37.04c9.53,8.6,34.25,6.12,34.25,6.12s44.51,8.66,51.93,35.86
	c0.56,2.05,1.1,4.13,1.61,6.24c0.39,1.58,0.77,3.16,1.12,4.75c0.18,0.79,0.37,1.59,0.54,2.38c0.53,2.39,1.03,4.77,1.5,7.13
	c0.16,0.79,0.32,1.57,0.47,2.35c0.16,0.79,0.31,1.57,0.45,2.34c0.15,0.77,0.29,1.53,0.42,2.3c0.15,0.76,0.29,1.52,0.41,2.27
	c0.14,0.7,0.26,1.4,0.38,2.08c0.65,3.74,1.23,7.3,1.73,10.56c1.66,10.81,2.5,18.31,2.5,18.31s0.08-0.64,0.27-1.82
	c0.03-0.19,0.07-0.4,0.1-0.63c0.01-0.06,0.02-0.11,0.03-0.17c0.02-0.16,0.06-0.34,0.09-0.53c0,0,0-0.01,0-0.02
	c0.03-0.17,0.07-0.35,0.1-0.54c0.09-0.49,0.19-1.03,0.3-1.61c0.09-0.47,0.19-0.98,0.31-1.51c0.37-1.77,0.84-3.86,1.42-6.17
	c0.09-0.37,0.19-0.73,0.29-1.12c0.22-0.84,0.46-1.69,0.7-2.59c0.14-0.48,0.27-0.96,0.41-1.45c0.3-1.04,0.62-2.12,0.96-3.22
	c0.11-0.37,0.23-0.74,0.35-1.12C573.42,827.79,574.57,834.65,575.48,840.54z"/>
<path class="st16" d="M387.59,927.33l-20.64,88.2h-4.52C363.56,997.27,368.7,966.36,387.59,927.33z"/>
<path class="st16" d="M465.67,780.21c-24.1,29.83-52.74,61.17-78.07,77.88c-57.51,37.92-117.26,29.67-156.83,72.43
	c-0.66,0.71-1.3,1.43-1.91,2.16c6.31,26.14,15.77,60.85,14.81,82.85h-92.73l29.96-76.05c0,0,13.6-58.12,40.8-76.66
	c27.21-18.55,56.88-43.28,92.74-51.93c35.86-8.66,75.42-33.39,75.42-33.39s0,0,0.01-0.01s0.04-0.02,0.08-0.04
	c0.14-0.1,0.46-0.31,0.93-0.61c0.13-0.09,0.28-0.18,0.44-0.28s0.33-0.21,0.51-0.33c0.09-0.05,0.18-0.11,0.28-0.18
	c0.1-0.06,0.2-0.12,0.3-0.19c0.63-0.4,1.37-0.87,2.21-1.4c0.34-0.22,0.7-0.44,1.08-0.68c0.94-0.59,1.97-1.24,3.1-1.94
	c0.22-0.14,0.45-0.29,0.68-0.43c0.22-0.14,0.44-0.28,0.67-0.41c0.25-0.16,0.5-0.31,0.76-0.47c0.77-0.48,1.58-0.98,2.41-1.49
	c0.41-0.25,0.83-0.51,1.26-0.77c1.76-1.07,3.62-2.2,5.57-3.36c0.38-0.22,0.75-0.45,1.14-0.67c1.41-0.85,2.87-1.7,4.36-2.57
	c0.31-0.18,0.63-0.37,0.95-0.56c0.25-0.14,0.5-0.29,0.76-0.44c0.51-0.29,1.03-0.59,1.55-0.89c0.32-0.18,0.64-0.37,0.96-0.55
	c0.2-0.11,0.4-0.23,0.6-0.34c0.78-0.45,1.57-0.89,2.36-1.34c1.42-0.8,2.86-1.6,4.3-2.39c0.42-0.23,0.84-0.47,1.26-0.7
	c0.06-0.03,0.11-0.06,0.17-0.09c0.5-0.27,1.01-0.54,1.51-0.81c0.49-0.27,0.98-0.53,1.47-0.79c0.61-0.33,1.23-0.65,1.84-0.97
	c0.61-0.33,1.22-0.65,1.83-0.96c0.52-0.27,1.04-0.54,1.55-0.8c0.7-0.36,1.39-0.71,2.08-1.05c0.96-0.48,1.91-0.95,2.86-1.41
	c0.08-0.04,0.16-0.08,0.24-0.12c0.86-0.41,1.72-0.82,2.56-1.21c0.93-0.43,1.84-0.84,2.74-1.24c0.45-0.2,0.89-0.4,1.33-0.59
	c0.89-0.38,1.76-0.75,2.61-1.1c0.43-0.17,0.85-0.34,1.26-0.51c1.25-0.49,2.46-0.95,3.62-1.34c0.38-0.13,0.77-0.26,1.14-0.38
	c0.07-0.02,0.14-0.04,0.21-0.07c1.05-0.33,2.05-0.61,3-0.85C460.96,754.25,462.51,767.25,465.67,780.21z"/>
<path class="st16" d="M527.68,754.73c3.86,37.64-38.78,99.4-35.19,80.28c3.71-19.79,0-35.86,0-61.83
	c0-17.51,15.76-21.52,26.01-22.27C521.39,751.96,524.52,753.23,527.68,754.73z"/>
<path class="st16" d="M575.48,840.54c-0.3,1.05-0.53,1.92-0.62,2.22c-5.5,19.99-5.79,43.77-15.43,62.35
	c-6.39,12.32-9.26,65.46-10.56,110.42h-18.53c-1.25-44.44,4.4-102.63,4.46-126.11c0.07-25.4,16.34-56.06,27.65-75.13
	c0.65,3.74,1.23,7.29,1.73,10.54v0.01c1.66,10.81,2.5,18.31,2.5,18.31s0.08-0.64,0.27-1.82c0.04-0.2,0.07-0.4,0.1-0.63
	c0.02-0.06,0.03-0.12,0.04-0.17c0.02-0.16,0.06-0.35,0.09-0.53c0,0,0-0.01,0-0.02c0.03-0.18,0.07-0.36,0.1-0.54
	c0.1-0.49,0.2-1.03,0.3-1.62c0.09-0.47,0.2-0.98,0.31-1.51c0.37-1.77,0.84-3.86,1.42-6.17c0.09-0.36,0.19-0.73,0.29-1.12
	c0.21-0.84,0.45-1.69,0.69-2.59c0.14-0.48,0.28-0.96,0.42-1.45c0.29-1.04,0.62-2.12,0.96-3.22c0.11-0.36,0.23-0.74,0.35-1.12
	C573.42,827.79,574.58,834.65,575.48,840.54z"/>
<path class="st2" d="M1131.75,1015.53h-43.47c-12.61-54.51-34.54-122.35-48.04-154.14c-23.08-54.41-214.32-110.46-243.22-130.24
	c-7.77-5.33-8.19-13.86-4.4-24.21v-0.01c0.33,0.22,0.67,0.45,1.03,0.69c0.18,0.12,0.37,0.24,0.56,0.36
	c0.57,0.36,1.19,0.74,1.85,1.14c0.44,0.26,0.9,0.52,1.38,0.8c0.71,0.41,1.47,0.83,2.28,1.26c0.54,0.28,1.1,0.57,1.68,0.87
	c0.29,0.14,0.59,0.29,0.89,0.44c0.59,0.29,1.22,0.59,1.86,0.89c0.48,0.22,0.97,0.45,1.47,0.68c0.27,0.12,0.55,0.24,0.83,0.37
	c0.98,0.43,2,0.85,3.06,1.29c1.06,0.43,2.18,0.86,3.33,1.3c0.02,0,0.05,0.01,0.07,0.02c0.41,0.15,0.83,0.3,1.25,0.46
	c1.26,0.45,2.58,0.91,3.94,1.36c0.46,0.15,0.92,0.29,1.39,0.44c1.4,0.45,2.86,0.89,4.37,1.32c25.97,7.42,68.01,27.21,81.61,32.15
	c13.6,4.95,70.47,25.97,103.86,48.22c33.38,22.26,61.82,16.08,74.19,55.64c0.87,2.78,1.93,6.22,3.16,10.22
	c0.41,1.33,0.84,2.72,1.28,4.17c0.15,0.48,0.3,0.97,0.45,1.47c0.3,0.99,0.61,2,0.94,3.04c2.7,8.84,5.92,19.4,9.43,30.95
	c0.4,1.36,0.82,2.73,1.25,4.12c0.42,1.39,0.85,2.79,1.27,4.2c0.64,2.11,1.29,4.25,1.95,6.42c0.22,0.72,0.44,1.44,0.66,2.17
	c0.4,1.35,0.82,2.71,1.23,4.08c0.26,0.83,0.51,1.67,0.76,2.51c0.38,1.23,0.75,2.47,1.13,3.72c0.29,0.95,0.58,1.9,0.86,2.85
	c0.24,0.79,0.48,1.57,0.72,2.36c0.34,1.13,0.68,2.26,1.02,3.39c0.29,0.97,0.58,1.93,0.88,2.9c0.05,0.17,0.1,0.33,0.15,0.5
	c0.69,2.27,1.38,4.55,2.07,6.83c2.19,7.26,4.4,14.55,6.57,21.75c0.33,1.11,0.67,2.2,1,3.3c0.68,2.26,1.36,4.5,2.03,6.73
	c0.43,1.43,0.86,2.85,1.29,4.27c0.85,2.82,1.69,5.61,2.52,8.36c0.23,0.75,0.45,1.49,0.67,2.23c0.91,3.01,1.81,5.97,2.68,8.88
	c0.42,1.38,0.83,2.74,1.24,4.09C1131.07,1013.28,1131.41,1014.41,1131.75,1015.53z"/>
<path class="st15" d="M565.83,834.55l-13.58,62.28c0,0-13.8-38.02-28.75-84.96c-14.94-46.93-33.13-41.22-2.19-58.08
	c1.36-0.74,2.69-1.41,4-1.99c12.46,5.51,26.38,14.64,30.24,28.8C560.93,800.34,564.36,823.39,565.83,834.55z"/>
<path class="st18" d="M630.05,747.22c0,0,31.83,14.84,30.59,80.37c0,0,0.55,9.89,5.22,13.6c4.67,3.71,128.32-85.32,125.84-133.54
	l-43.28-71.71C748.43,635.94,766.39,677.98,630.05,747.22z"/>
<path class="st18" d="M565.83,834.55l-13.58,62.28c0,0-13.8-38.02-28.75-84.96c-14.94-46.93-51.95-58.99-8.7-60.8
	c1.55-0.07,9.2,1.32,10.5,0.73c12.46,5.51,26.38,14.64,30.24,28.8C560.93,800.34,564.36,823.39,565.83,834.55z"/>
<path class="st18" d="M643.81,757.18c-1.76,2.14-3.06,4.57-4.04,7.15c-1.24,3.27-1.98,6.79-2.52,10.26
	c-1.63,10.29-3.91,20.05-7.15,29.97c-2.96,9.05-7.23,17.62-9.98,26.7c-6.63,21.85-10.64,44.66-14.34,67.15
	c-3.49,21.21-7.68,43.6-6.54,65.19c0.6,11.37,0,31.24-1.01,51.93h-61.05c1.05-47.37,3.79-112.32,10.95-126.12
	c9.64-18.58,9.93-42.36,15.43-62.35c0.09-0.3,0.32-1.17,0.62-2.22v-0.01c0.08-0.29,0.17-0.6,0.26-0.92
	c0.16-0.69,0.59-2.44,1.38-4.95c2.3-7.3,5.92-14.21,9.99-20.63c6.49-10.26,14.66-19.5,24.22-27.01c3.33-2.62,6.82-5.03,10.46-7.19
	c2.5-1.5,5.08-2.88,7.72-4.14c1.98-0.95,4.13-2.06,6.3-2.97c0.02-0.01,0.05-0.02,0.08-0.03c1.31-0.55,2.64-1.01,3.94-1.33
	c0.09-0.02,0.18-0.04,0.27-0.06c0-0.01,0.01,0,0.01,0c4.18-0.98,8.05-1.06,12.06-3.07c1.13-0.57,4.19-2.37,5.3-0.91
	C647.42,753.25,644.72,756.08,643.81,757.18z"/>
<path class="st18" d="M492.49,841.3c0,0,7.17-32.15,0-70.59c-2.31-12.36,32.82-18.91,32.82-18.91s-56.32-58.98-41.48-75.06
	c0,0-24.73,26.08-23.49,61.88S468.99,803.08,492.49,841.3z"/>
<g>
	<circle class="st19" cx="573.85" cy="920.29" r="10.24"/>
	<circle class="st20" cx="572.79" cy="921.35" r="11.3"/>
	<circle class="st19" cx="573.85" cy="920.29" r="10.24"/>
	<circle class="st20" cx="576.02" cy="918.12" r="2.16"/>
	<circle class="st20" cx="570.62" cy="919.19" r="2.16"/>
	<circle class="st20" cx="570.62" cy="924.66" r="2.16"/>
	<circle class="st20" cx="576.02" cy="923.52" r="2.16"/>
</g>
<g>
	<ellipse class="st20" cx="674.04" cy="821.01" rx="8.18" ry="9.13"/>
	<ellipse class="st19" cx="675.53" cy="819.76" rx="6.69" ry="7.88"/>
	<ellipse class="st20" cx="674.56" cy="818.24" rx="0.97" ry="1.51"/>
	<ellipse class="st20" cx="676.85" cy="819.4" rx="1.02" ry="1.6"/>
	<ellipse class="st20" cx="674.56" cy="822.26" rx="0.97" ry="1.66"/>
	<ellipse class="st20" cx="676.85" cy="823.05" rx="0.89" ry="1.31"/>
</g>
<g>
	
		<ellipse transform="matrix(0.9323 -0.3618 0.3618 0.9323 -247.2882 242.0706)" class="st20" cx="522.83" cy="781.44" rx="7.22" ry="10.6"/>
	
		<ellipse transform="matrix(0.9323 -0.3618 0.3618 0.9323 -247.5567 241.6377)" class="st19" cx="521.54" cy="781.94" rx="5.84" ry="9.3"/>
	
		<ellipse transform="matrix(0.9077 -0.4195 0.4195 0.9077 -278.9058 290.7554)" class="st20" cx="521.65" cy="779.54" rx="1.07" ry="1.65"/>
	
		<ellipse transform="matrix(0.9077 -0.4195 0.4195 0.9077 -279.717 290.0183)" class="st20" cx="519.57" cy="781.01" rx="1.07" ry="1.65"/>
	
		<ellipse transform="matrix(0.9077 -0.4195 0.4195 0.9077 -280.9536 291.0559)" class="st20" cx="521.31" cy="784.34" rx="1.07" ry="1.65"/>
	
		<ellipse transform="matrix(0.9077 -0.4195 0.4195 0.9077 -280.0968 291.8329)" class="st20" cx="523.5" cy="782.78" rx="1.07" ry="1.65"/>
</g>
<g>
	
		<ellipse transform="matrix(0.2187 -0.9758 0.9758 0.2187 -420.2517 1120.1355)" class="st20" cx="489.35" cy="822.5" rx="7.81" ry="4.02"/>
	
		<ellipse transform="matrix(0.2187 -0.9758 0.9758 0.2187 -420.7746 1119.0659)" class="st19" cx="488.42" cy="822.29" rx="6.84" ry="3.07"/>
	
		<ellipse transform="matrix(0.3109 -0.9504 0.9504 0.3109 -444.3337 1029.7142)" class="st20" cx="487.94" cy="821.27" rx="1.1" ry="0.48"/>
	
		<ellipse transform="matrix(0.3109 -0.9504 0.9504 0.3109 -443.9127 1031.0229)" class="st20" cx="489.05" cy="821.64" rx="1.1" ry="0.48"/>
	
		<ellipse transform="matrix(0.3109 -0.9504 0.9504 0.3109 -447.2358 1030.4933)" class="st20" cx="487.02" cy="823.67" rx="1.1" ry="0.48"/>
	
		<ellipse transform="matrix(0.3109 -0.9504 0.9504 0.3109 -446.8933 1031.9818)" class="st20" cx="488.22" cy="824.17" rx="1.1" ry="0.48"/>
</g>
<g>
	<g class="st21">
		<path class="st22" d="M673.01,839.95c0,0-43.75,4.67-43.12-84.66c0.02-2.61,0.07-5.3,0.17-8.07c0,0,3.39,1.24,7.92,5.57
			c8.24,7.84,20.28,25.83,22.67,64.91C665.87,833.77,673.01,839.95,673.01,839.95z"/>
		<path class="st22" d="M492.49,835.01c3.71-19.79,0-35.86,0-61.83c0-17.51,15.76-21.52,26.01-22.27c4.95-0.37,8.61,0.02,8.61,0.02
			c0.25,1.23,0.44,2.5,0.57,3.8C531.54,792.37,488.9,854.13,492.49,835.01z"/>
	</g>
	<path class="st2" d="M1131.75,1015.53h-43.47c-3.11-13.41-6.77-27.63-10.74-41.92c-12.15-43.79-27.12-88.25-37.3-112.22
		c-23.08-54.41-214.32-110.46-243.22-130.24c-7.77-5.33-8.19-13.86-4.4-24.21v-0.01c0.33,0.22,0.67,0.45,1.03,0.69
		c0.18,0.12,0.37,0.24,0.56,0.36c0.57,0.36,1.19,0.74,1.85,1.14c0.44,0.26,0.9,0.52,1.38,0.8c0.71,0.41,1.47,0.83,2.28,1.26
		c0.54,0.28,1.1,0.57,1.68,0.87c0.29,0.14,0.59,0.29,0.89,0.44c0.59,0.29,1.22,0.59,1.86,0.89c0.48,0.22,0.97,0.45,1.47,0.68
		c0.27,0.12,0.55,0.24,0.83,0.37c0.98,0.43,2,0.85,3.06,1.29c1.06,0.43,2.18,0.86,3.33,1.3c0.02,0,0.05,0.01,0.07,0.02
		c0.41,0.15,0.83,0.3,1.25,0.46c1.26,0.45,2.58,0.91,3.94,1.36c0.46,0.15,0.92,0.29,1.39,0.44c1.4,0.45,2.86,0.89,4.37,1.32
		c25.97,7.42,68.01,27.21,81.61,32.15c13.6,4.95,70.47,25.97,103.86,48.22c33.38,22.26,61.82,16.08,74.19,55.64
		c0.87,2.78,1.93,6.22,3.16,10.22c0.41,1.33,0.84,2.72,1.28,4.17c0.15,0.48,0.3,0.97,0.45,1.47c0.3,0.99,0.61,2,0.94,3.04
		c2.7,8.84,5.92,19.4,9.43,30.95c0.4,1.36,0.82,2.73,1.25,4.12c0.42,1.39,0.85,2.79,1.27,4.2c0.64,2.11,1.29,4.25,1.95,6.42
		c0.22,0.72,0.44,1.44,0.66,2.17c0.4,1.35,0.82,2.71,1.23,4.08c0.26,0.83,0.51,1.67,0.76,2.51c0.38,1.23,0.75,2.47,1.13,3.72
		c0.29,0.95,0.58,1.9,0.86,2.85c0.24,0.79,0.48,1.57,0.72,2.36c0.34,1.13,0.68,2.26,1.02,3.39c0.29,0.97,0.58,1.93,0.88,2.9
		c0.05,0.17,0.1,0.33,0.15,0.5c0.69,2.27,1.38,4.55,2.07,6.83c2.19,7.26,4.4,14.55,6.57,21.75c0.33,1.11,0.67,2.2,1,3.3
		c0.68,2.26,1.36,4.5,2.03,6.73c0.43,1.43,0.86,2.85,1.29,4.27c0.85,2.82,1.69,5.61,2.52,8.36c0.23,0.75,0.45,1.49,0.67,2.23
		c0.91,3.01,1.81,5.97,2.68,8.88c0.42,1.38,0.83,2.74,1.24,4.09C1131.07,1013.28,1131.41,1014.41,1131.75,1015.53z"/>
	<path class="st17" d="M465.67,780.21c-24.1,29.83-52.74,61.17-78.07,77.88c-57.51,37.92-117.26,29.67-156.83,72.43
		c-0.66,0.71-1.3,1.43-1.91,2.16c-1.97,2.29-3.72,4.65-5.3,7.06c-15.02,22.96-13.71,50.75-13.17,75.79h-59.45l29.96-76.05
		c0,0,13.6-58.12,40.8-76.66c27.21-18.55,56.88-43.28,92.74-51.93c35.86-8.66,75.42-33.39,75.42-33.39s0,0,0.01-0.01
		s0.04-0.02,0.08-0.04c0.14-0.1,0.46-0.31,0.93-0.61c0.13-0.09,0.28-0.18,0.44-0.28s0.33-0.21,0.51-0.33
		c0.09-0.05,0.18-0.11,0.28-0.18c0.1-0.06,0.2-0.12,0.3-0.19c0.63-0.4,1.37-0.87,2.21-1.4c0.34-0.22,0.7-0.44,1.08-0.68
		c0.94-0.59,1.97-1.24,3.1-1.94c0.22-0.14,0.45-0.29,0.68-0.43c0.22-0.14,0.44-0.28,0.67-0.41c0.25-0.16,0.5-0.31,0.76-0.47
		c0.77-0.48,1.58-0.98,2.41-1.49c0.41-0.25,0.83-0.51,1.26-0.77c1.76-1.07,3.62-2.2,5.57-3.36c0.38-0.22,0.75-0.45,1.14-0.67
		c1.41-0.85,2.87-1.7,4.36-2.57c0.31-0.18,0.63-0.37,0.95-0.56c0.25-0.14,0.5-0.29,0.76-0.44c0.51-0.29,1.03-0.59,1.55-0.89
		c0.32-0.18,0.64-0.37,0.96-0.55c0.2-0.11,0.4-0.23,0.6-0.34c0.78-0.45,1.57-0.89,2.36-1.34c1.42-0.8,2.86-1.6,4.3-2.39
		c0.42-0.23,0.84-0.47,1.26-0.7c0.06-0.03,0.11-0.06,0.17-0.09c0.5-0.27,1.01-0.54,1.51-0.81c0.49-0.27,0.98-0.53,1.47-0.79
		c0.61-0.33,1.23-0.65,1.84-0.97c0.61-0.33,1.22-0.65,1.83-0.96c0.52-0.27,1.04-0.54,1.55-0.8c0.7-0.36,1.39-0.71,2.08-1.05
		c0.96-0.48,1.91-0.95,2.86-1.41c0.08-0.04,0.16-0.08,0.24-0.12c0.86-0.41,1.72-0.82,2.56-1.21c0.93-0.43,1.84-0.84,2.74-1.24
		c0.45-0.2,0.89-0.4,1.33-0.59c0.89-0.38,1.76-0.75,2.61-1.1c0.43-0.17,0.85-0.34,1.26-0.51c1.25-0.49,2.46-0.94,3.62-1.34
		c0.38-0.13,0.77-0.26,1.14-0.38c0.07-0.02,0.14-0.04,0.21-0.07c1.05-0.33,2.05-0.61,3-0.85
		C460.96,754.25,462.51,767.25,465.67,780.21z"/>
</g>
<path class="st17" d="M850.65,788.84c0,0-31.32,90.67-14.84,131.89S788,830.06,850.65,788.84z"/>
<path class="st17" d="M957.83,1015.53h-13.81c-7.88-16.25-20.56-43.67-42.26-75.01C881.02,910.56,953.7,981.14,957.83,1015.53z"/>
<path class="st17" d="M766.14,812.25c-12.25,40.33,36.67-48.13,56.47-44.83S792.08,726.84,766.14,812.25z"/>
<path class="st17" d="M564.18,824.83v0.01c-0.3,1.05-0.53,1.92-0.62,2.22c-5.5,19.99-5.79,43.77-15.43,62.35
	c-7.16,13.8-9.9,78.75-10.95,126.12h-6.84c-1.25-44.44,4.4-102.63,4.46-126.11c0.07-25.4,16.34-56.06,27.65-75.13
	C563.1,818.03,563.68,821.58,564.18,824.83z"/>
<path class="st17" d="M1007.87,1015.53h-15.54c-5.97-33.94-5.12-106.94,18.24-149.2C1014.1,859.94,1016.55,969.83,1007.87,1015.53z"
	/>
<path class="st17" d="M1051.79,917.46c1.08,1.41,2.05,3.25,2.92,5.46C1052.96,919.55,1051.9,917.67,1051.79,917.46z"/>
<path class="st17" d="M243.67,1015.53H226.6c-2.91-20.39-3.25-52.51-3.04-75.79c0.17-16.73,0.62-28.9,0.62-28.9
	c0.93,5.92,2.64,13.44,4.68,21.84C235.17,958.82,244.63,993.53,243.67,1015.53z"/>
<path class="st17" d="M430.88,772.36c-23.7,16.49-59.97,67.06-53.38,93.7S430.88,772.36,430.88,772.36z"/>
<path class="st17" d="M387.59,927.33l-20.64,88.2h-4.52C363.56,997.27,368.7,966.36,387.59,927.33z"/>
<path class="st0" d="M54.83,752.79"/>
<g>
	<path class="st0" d="M1224.08,1011.28c-1.63,2.26-3.32,4.48-5.05,6.66c-15.11,19.04-33.95,35.34-53.67,50.21
		c-5.48,4.14-11.04,8.16-16.6,12.11c-1.47,1.04-2.94,2.08-4.41,3.11c-22.85,16.06-46.26,31.3-70.2,45.67
		c-18.43,11.06-37.63,21.8-58.79,25.57c-25.12,4.47-50.81-1.21-75.69-6.86c-26.71-6.07-53.49-12.17-80.06-18.92
		c-40.63-10.34-80.8-22.25-119.6-38.06c-24.06-9.81-47.82-21.18-73.4-25.73c-47.16-8.39-95.32,7.27-138.66,27.67
		c-43.34,20.4-84.72,45.88-130.76,59.12c-46.04,13.23-99.47,12.31-137.43-16.9c-28.21-21.71-44.77-56.42-74.46-76.05
		c-4.06-2.69-8.28-5.03-12.62-7.12c-25.47-12.27-55.11-15.6-81.63-26.26c-41.24-16.57-74.37-52.02-88.43-94.13
		c0.02-0.82,0.05-1.65,0.09-2.47c0.03-0.78,0.06-1.57,0.11-2.35c0.09-1.76,0.21-3.51,0.35-5.27l0.15-1.65
		c0.08-0.96,0.18-1.92,0.28-2.88c0.13-1.18,0.27-2.36,0.42-3.54c0-0.08,0.01-0.15,0.03-0.23c0.12-0.96,0.25-1.92,0.39-2.89
		c0.05-0.41,0.12-0.83,0.19-1.24c0.13-0.92,0.28-1.85,0.43-2.78c0.02-0.15,0.05-0.29,0.07-0.44c0.17-1,0.35-1.99,0.54-2.99
		c0.06-0.36,0.12-0.71,0.2-1.07c0.19-1.01,0.39-2.01,0.6-3.02c0.25-1.21,0.51-2.42,0.79-3.62c0.21-0.93,0.43-1.86,0.66-2.79
		c0.11-0.46,0.22-0.91,0.34-1.37c0.25-1.02,0.52-2.04,0.8-3.06c0.26-0.98,0.53-1.95,0.81-2.92c0.13-0.49,0.28-0.97,0.42-1.46
		c0.28-0.93,0.56-1.87,0.85-2.8c0.37-1.19,0.75-2.38,1.15-3.56c0.39-1.19,0.8-2.37,1.22-3.55
		c128.46,89.88,258.46,173.59,389.86,175.68c181.38,2.88,186.28-34.19,294.71-74.69c108.43-40.51,357.31,32.46,444.55-11.23
		C1191.38,938.77,1213.79,974.77,1224.08,1011.28z"/>
	<g>
		<path class="st0" d="M1221.92,1010.02c-29.58,40.48-73.97,69.03-115.48,95.93c-20.55,13.32-41.47,27.32-63.88,37.35
			c-25.39,11.36-51.21,12.08-78.28,7.12c-26.23-4.81-52.24-11.41-78.17-17.62c-25.6-6.14-51.11-12.7-76.33-20.28
			c-24.81-7.46-49.3-15.93-73.24-25.84c-22.56-9.34-45.06-19.74-69.28-24.03c-100.78-17.86-181.99,62.56-273.52,87.56
			c-41.38,11.31-89.64,11.53-126.53-12.99c-35.56-23.63-52.45-67.12-91.43-86.69c-21.05-10.57-44.43-14.72-66.82-21.47
			c-21.34-6.43-41.03-16.3-58.03-30.83c-15.57-13.3-28.49-29.65-37.73-47.94c-2.37-4.69-4.5-9.5-6.35-14.42
			c-1.92-5.13-1.6-9.62-1.15-15.01c0.59-7.02,1.62-13.98,3.02-20.88c1.78-8.79,4.23-17.42,7.19-25.89c-1.22,0.5-2.45,1-3.67,1.49
			C63.6,911.49,115.51,946.9,170.3,977.42c49.47,27.56,101.78,51.53,157.13,64.45c51.57,12.04,105.42,11.87,157.99,7.64
			c33.72-2.72,67.1-8.67,98.66-21.13c26.11-10.31,50.69-24.04,76.22-35.65c15.91-7.24,32.22-14.56,49.04-19.4
			c16.35-4.7,33.34-6.92,50.27-8.1c40.39-2.81,81.09-0.05,121.37,3.17c42.55,3.4,85.02,7.97,127.65,10.37
			c35.07,1.98,71.4,3.4,106.01-3.77c6.78-1.4,13.5-3.2,19.98-5.65c8.74-3.3,16.78-8.08,25.95-10.25
			c21.58-5.13,38.92,5.81,49.54,24.2c5.17,8.96,8.71,18.72,11.55,28.64c0.88,3.09,5.71,1.78,4.82-1.33
			c-5.06-17.66-12.65-36.66-27.47-48.41c-16.29-12.92-36.8-10.85-54.77-2.56c-29.69,13.69-62.07,15.68-94.4,15.53
			c-84.07-0.4-167.38-15.33-251.46-15.98c-34.21-0.26-70.03,1.19-102.39,13.35c-30.03,11.28-58.43,25.77-87.31,39.57
			c-27.22,13.01-55.28,22.7-85.09,27.77c-21.43,3.65-43.16,5.36-64.87,6.22c-27.72,1.1-55.87,1.66-83.5-1.16
			c-56.93-5.81-111.58-25.82-162.66-50.94c-55.39-27.24-107.51-60.75-158.43-95.49c-13.18-8.99-26.29-18.09-39.37-27.24
			c-1.41-0.99-3.18,0.09-3.67,1.49c-5.41,15.41-8.94,31.42-10.35,47.7c-0.32,3.67-1.12,7.93-0.54,11.58
			c0.75,4.74,3.59,9.8,5.55,14.19c4.21,9.43,9.4,18.44,15.42,26.84c11.77,16.44,26.55,30.65,43.55,41.6
			c19.26,12.41,40.73,18.85,62.7,24.67c24,6.35,48.05,13.19,67.21,29.79c16.37,14.18,28.7,32.19,43.07,48.25
			c13.86,15.49,29.85,28.04,49.34,35.64c20.39,7.95,42.69,10.44,64.44,9.21c101.34-5.7,177.77-91.22,279.13-96.73
			c26.42-1.44,51.27,4.5,75.74,14.06c24.11,9.43,47.69,19.88,72.23,28.23c51.66,17.57,104.93,29.77,158.08,41.85
			c24.82,5.64,50.38,11.6,75.95,7.94c24.38-3.49,46.08-16.21,66.8-28.77c22.81-13.82,45.13-28.44,66.95-43.78
			c20.02-14.08,39.78-28.82,57.18-46.11c8.25-8.19,15.85-16.97,22.71-26.36C1228.14,1009.94,1223.8,1007.44,1221.92,1010.02z"/>
	</g>
</g>
</svg>